<?xml version="1.0" encoding="UTF-8"?>
<svg xmlns="http://www.w3.org/2000/svg" xmlns:xlink="http://www.w3.org/1999/xlink" width="3304.39" height="3187.72" viewBox="0 0 3304.39 3187.72">
<defs>
<clipPath id="clip-0">
<path clip-rule="nonzero" d="M 0 0 L 3304.390625 0 L 3304.390625 3187.71875 L 0 3187.71875 Z M 0 0 "/>
</clipPath>
<clipPath id="clip-1">
<path clip-rule="evenodd" d="M 1483.511719 2480.550781 L 1788.25 2480.550781 L 1788.25 2150.738281 Z M 1943.078125 2443.75 L 1943.078125 2480.550781 L 2213.878906 2480.550781 L 2213.878906 2150.710938 Z M 1732.121094 2635.441406 L 2291.308594 2635.441406 C 2334.101562 2635.441406 2368.769531 2600.789062 2368.710938 2558.011719 L 2368.710938 1952.75 C 2368.710938 1882.519531 2282.039062 1848.628906 2234.390625 1900.21875 L 1943.078125 2215.511719 L 1943.078125 1952.75 C 1943.078125 1882.488281 1856.359375 1848.628906 1808.761719 1900.21875 L 1249.570312 2505.449219 C 1203.898438 2554.878906 1239.171875 2635.441406 1306.480469 2635.441406 Z M 1789.429688 1203.539062 C 1748.089844 1203.539062 1748.121094 1266.308594 1789.429688 1266.308594 C 1830.71875 1266.308594 1830.75 1203.539062 1789.429688 1203.539062 Z M 1789.429688 1421.210938 C 1892.101562 1421.210938 1975.710938 1337.648438 1975.710938 1234.921875 C 1975.710938 1132.191406 1892.160156 1048.640625 1789.429688 1048.640625 C 1686.679688 1048.640625 1603.140625 1132.230469 1603.140625 1234.921875 C 1603.140625 1337.648438 1686.730469 1421.210938 1789.429688 1421.210938 Z M 1504.511719 1410.421875 C 1544.269531 1410.421875 1577.75 1440.621094 1581.578125 1480.449219 C 1591.789062 1586.738281 1680.191406 1666.929688 1787.171875 1666.929688 C 1905.339844 1666.929688 1999.871094 1567.980469 1993.429688 1448.230469 C 1990.28125 1389.398438 2051.898438 1348.589844 2104.800781 1374.488281 C 2179.179688 1410.871094 2268.589844 1356.839844 2268.589844 1271.929688 C 2268.589844 1213.5 2224.878906 1164.78125 2166.871094 1158.589844 C 2118.058594 1153.398438 2086.328125 1104.558594 2101.359375 1057.859375 C 2156.78125 885.789062 2028.421875 707.171875 1845.898438 707.171875 C 1698.128906 707.171875 1577.75 827.410156 1577.550781 975.191406 C 1577.480469 1022.191406 1535.789062 1058.378906 1489.21875 1051.78125 C 1378.75 1036.019531 1281.128906 1122.878906 1281.128906 1231.828125 C 1281.128906 1343.789062 1381.730469 1429.269531 1492.199219 1411.410156 C 1496.28125 1410.75 1500.421875 1410.421875 1504.511719 1410.421875 Z M 1787.230469 1821.789062 C 1959.050781 1821.789062 2103.21875 1701.359375 2139.730469 1540.421875 C 2144.699219 1540.699219 2149.628906 1540.828125 2154.648438 1540.828125 C 2442.941406 1540.828125 2526.621094 1145.101562 2266.019531 1027.039062 C 2296.378906 774.128906 2099.28125 552.289062 1845.878906 552.289062 C 1639.550781 552.289062 1467.101562 700.859375 1430.03125 896.628906 C 1259.75 913.269531 1126.230469 1057.261719 1126.230469 1231.828125 C 1126.230469 1410.480469 1265.980469 1557.058594 1441.898438 1567.980469 C 1487.699219 1716.78125 1625.300781 1821.789062 1787.230469 1821.789062 Z M 384.011719 1370.511719 C 437.855469 1389.171875 468.035156 1392.328125 524.164062 1370.511719 C 653.835938 1314.789062 753.25 1109.328125 753.25 872.53125 C 753.25 721.101562 717.832031 607.140625 659.207031 503.011719 C 605.179688 414.699219 532.597656 359.679688 454.089844 359.679688 C 291.898438 359.679688 154.914062 594.539062 154.914062 872.53125 C 154.914062 1109.339844 254.328125 1314.800781 384.011719 1370.511719 Z M 3048.300781 1904.871094 L 2950.328125 2898.570312 C 2945.421875 2948.550781 2999 2986.949219 3046.679688 2986.949219 L 3142.621094 2986.949219 L 3142.621094 1941.878906 C 3109.320312 1931.160156 3077.878906 1918.820312 3048.300781 1904.871094 Z M 2942.429688 886.980469 C 2941.191406 893.21875 2939.21875 899.300781 2936.519531 905.089844 C 2864.308594 1129.109375 2829.011719 1362.539062 2898.351562 1539.910156 C 2943.871094 1656.269531 3029.921875 1731.328125 3143.039062 1777.398438 L 3148.378906 414.351562 C 3072.070312 558.941406 2996.039062 725.371094 2942.429688 886.980469 Z M 843.40625 524.148438 C 1103.808594 331.421875 1468 202.390625 1768.160156 202.390625 C 2187.558594 202.390625 2579.148438 389.398438 2842.28125 709.128906 C 2848.691406 692.539062 2855.199219 676.121094 2861.820312 659.859375 C 2587.578125 338.359375 2191.210938 154.898438 1767.109375 154.898438 C 1444.789062 154.898438 1137.039062 264.429688 828.160156 489.320312 C 833.492188 500.671875 838.5625 512.28125 843.40625 524.148438 Z M 661.636719 2140.050781 C 907.035156 2591.808594 1289.308594 2830.488281 1768.160156 2830.488281 C 2234.03125 2830.488281 2653.929688 2574.210938 2867.441406 2160.75 L 2902.03125 1809.808594 C 2647.46875 1584.839844 2682.769531 1207.890625 2781.371094 884.710938 C 2549.449219 553.738281 2173.410156 357.261719 1768.160156 357.261719 C 1480.421875 357.261719 1126.441406 490.019531 890.40625 683.710938 C 950.070312 991.898438 857.628906 1353.621094 629.421875 1490.398438 Z M 507.90625 2167.050781 C 507.8125 2165.921875 507.773438 2164.789062 507.734375 2163.660156 L 476.769531 1539.5 L 431.40625 1539.5 L 371.40625 2749.269531 C 366.386719 2850.820312 541.839844 2850.761719 536.796875 2749.269531 Z M 1768.160156 2985.421875 C 1326.46875 2985.421875 947.5625 2796.339844 676.859375 2446.828125 L 681.363281 2537.628906 C 963.097656 2848.160156 1366.941406 3032.828125 1767.109375 3032.828125 C 2170.121094 3032.828125 2555.121094 2863.238281 2827.441406 2566.648438 L 2835.191406 2488.039062 C 2574.449219 2800.539062 2187.878906 2985.421875 1768.160156 2985.421875 Z M 1767.109375 3187.71875 C 1380.191406 3187.71875 990.78125 3032.539062 691.394531 2765.371094 C 680.101562 2963.601562 424.539062 3060.359375 279.476562 2907.96875 C 235.941406 2862.210938 213.617188 2803.140625 216.6875 2741.628906 L 278.753906 1490.410156 C 113.585938 1391.429688 0 1155.109375 0 872.53125 C 0 282.128906 462.320312 10.980469 746.132812 357.441406 C 1079.300781 117.050781 1413.988281 0 1767.109375 0 C 2211.910156 0 2629.160156 182.21875 2930.109375 503.910156 C 3040 269.109375 3151.449219 97.261719 3162.160156 80.878906 C 3204.109375 16.859375 3304.679688 46.710938 3304.390625 123.640625 L 3297.511719 3064.378906 C 3297.511719 3107.171875 3262.839844 3141.832031 3220.050781 3141.832031 L 3046.679688 3141.832031 C 2907.339844 3141.832031 2782.210938 3025.371094 2796.210938 2883.410156 L 2804.011719 2804.191406 C 2516.898438 3049.988281 2149.320312 3187.71875 1767.109375 3187.71875 "/>
</clipPath>
<linearGradient id="linear-pattern-0" gradientUnits="userSpaceOnUse" x1="0" y1="0" x2="1.0001" y2="0" gradientTransform="matrix(3304.06, 0, 0, 3304.06, 0, 1593.86)">
<stop offset="0" stop-color="rgb(11.372375%, 37.254333%, 37.646484%)" stop-opacity="1"/>
<stop offset="0.0078125" stop-color="rgb(11.326599%, 37.156677%, 37.547302%)" stop-opacity="1"/>
<stop offset="0.015625" stop-color="rgb(11.238098%, 36.964417%, 37.35199%)" stop-opacity="1"/>
<stop offset="0.0234375" stop-color="rgb(11.149597%, 36.77063%, 37.155151%)" stop-opacity="1"/>
<stop offset="0.03125" stop-color="rgb(11.061096%, 36.578369%, 36.959839%)" stop-opacity="1"/>
<stop offset="0.0390625" stop-color="rgb(10.971069%, 36.384583%, 36.763%)" stop-opacity="1"/>
<stop offset="0.046875" stop-color="rgb(10.882568%, 36.192322%, 36.567688%)" stop-opacity="1"/>
<stop offset="0.0546875" stop-color="rgb(10.794067%, 35.998535%, 36.37085%)" stop-opacity="1"/>
<stop offset="0.0625" stop-color="rgb(10.705566%, 35.806274%, 36.175537%)" stop-opacity="1"/>
<stop offset="0.0703125" stop-color="rgb(10.61554%, 35.612488%, 35.978699%)" stop-opacity="1"/>
<stop offset="0.078125" stop-color="rgb(10.527039%, 35.420227%, 35.783386%)" stop-opacity="1"/>
<stop offset="0.0859375" stop-color="rgb(10.438538%, 35.22644%, 35.586548%)" stop-opacity="1"/>
<stop offset="0.09375" stop-color="rgb(10.350037%, 35.03418%, 35.391235%)" stop-opacity="1"/>
<stop offset="0.101562" stop-color="rgb(10.261536%, 34.840393%, 35.194397%)" stop-opacity="1"/>
<stop offset="0.109375" stop-color="rgb(10.171509%, 34.648132%, 34.999084%)" stop-opacity="1"/>
<stop offset="0.117188" stop-color="rgb(10.083008%, 34.454346%, 34.802246%)" stop-opacity="1"/>
<stop offset="0.125" stop-color="rgb(9.994507%, 34.262085%, 34.606934%)" stop-opacity="1"/>
<stop offset="0.132813" stop-color="rgb(9.906006%, 34.068298%, 34.410095%)" stop-opacity="1"/>
<stop offset="0.140625" stop-color="rgb(9.815979%, 33.876038%, 34.214783%)" stop-opacity="1"/>
<stop offset="0.148438" stop-color="rgb(9.727478%, 33.682251%, 34.017944%)" stop-opacity="1"/>
<stop offset="0.15625" stop-color="rgb(9.638977%, 33.48999%, 33.822632%)" stop-opacity="1"/>
<stop offset="0.164062" stop-color="rgb(9.550476%, 33.296204%, 33.625793%)" stop-opacity="1"/>
<stop offset="0.171875" stop-color="rgb(9.460449%, 33.103943%, 33.430481%)" stop-opacity="1"/>
<stop offset="0.179688" stop-color="rgb(9.371948%, 32.910156%, 33.233643%)" stop-opacity="1"/>
<stop offset="0.1875" stop-color="rgb(9.283447%, 32.717896%, 33.03833%)" stop-opacity="1"/>
<stop offset="0.195312" stop-color="rgb(9.194946%, 32.524109%, 32.841492%)" stop-opacity="1"/>
<stop offset="0.203125" stop-color="rgb(9.106445%, 32.331848%, 32.646179%)" stop-opacity="1"/>
<stop offset="0.210938" stop-color="rgb(9.016418%, 32.138062%, 32.449341%)" stop-opacity="1"/>
<stop offset="0.21875" stop-color="rgb(8.927917%, 31.945801%, 32.252502%)" stop-opacity="1"/>
<stop offset="0.226562" stop-color="rgb(8.839417%, 31.752014%, 32.05719%)" stop-opacity="1"/>
<stop offset="0.234375" stop-color="rgb(8.750916%, 31.559753%, 31.860352%)" stop-opacity="1"/>
<stop offset="0.242188" stop-color="rgb(8.660889%, 31.365967%, 31.665039%)" stop-opacity="1"/>
<stop offset="0.25" stop-color="rgb(8.572388%, 31.173706%, 31.468201%)" stop-opacity="1"/>
<stop offset="0.257813" stop-color="rgb(8.483887%, 30.979919%, 31.272888%)" stop-opacity="1"/>
<stop offset="0.265625" stop-color="rgb(8.395386%, 30.787659%, 31.07605%)" stop-opacity="1"/>
<stop offset="0.273438" stop-color="rgb(8.305359%, 30.593872%, 30.880737%)" stop-opacity="1"/>
<stop offset="0.28125" stop-color="rgb(8.216858%, 30.401611%, 30.683899%)" stop-opacity="1"/>
<stop offset="0.289062" stop-color="rgb(8.128357%, 30.207825%, 30.488586%)" stop-opacity="1"/>
<stop offset="0.296875" stop-color="rgb(8.039856%, 30.015564%, 30.291748%)" stop-opacity="1"/>
<stop offset="0.304687" stop-color="rgb(7.949829%, 29.821777%, 30.096436%)" stop-opacity="1"/>
<stop offset="0.3125" stop-color="rgb(7.861328%, 29.629517%, 29.899597%)" stop-opacity="1"/>
<stop offset="0.320312" stop-color="rgb(7.772827%, 29.43573%, 29.704285%)" stop-opacity="1"/>
<stop offset="0.328125" stop-color="rgb(7.684326%, 29.243469%, 29.507446%)" stop-opacity="1"/>
<stop offset="0.335937" stop-color="rgb(7.595825%, 29.049683%, 29.312134%)" stop-opacity="1"/>
<stop offset="0.34375" stop-color="rgb(7.505798%, 28.857422%, 29.115295%)" stop-opacity="1"/>
<stop offset="0.351562" stop-color="rgb(7.417297%, 28.663635%, 28.919983%)" stop-opacity="1"/>
<stop offset="0.359375" stop-color="rgb(7.328796%, 28.471375%, 28.723145%)" stop-opacity="1"/>
<stop offset="0.367188" stop-color="rgb(7.240295%, 28.277588%, 28.527832%)" stop-opacity="1"/>
<stop offset="0.375" stop-color="rgb(7.150269%, 28.085327%, 28.330994%)" stop-opacity="1"/>
<stop offset="0.382812" stop-color="rgb(7.061768%, 27.891541%, 28.135681%)" stop-opacity="1"/>
<stop offset="0.390625" stop-color="rgb(6.973267%, 27.69928%, 27.938843%)" stop-opacity="1"/>
<stop offset="0.398437" stop-color="rgb(6.884766%, 27.505493%, 27.74353%)" stop-opacity="1"/>
<stop offset="0.40625" stop-color="rgb(6.794739%, 27.313232%, 27.546692%)" stop-opacity="1"/>
<stop offset="0.414062" stop-color="rgb(6.706238%, 27.119446%, 27.351379%)" stop-opacity="1"/>
<stop offset="0.421875" stop-color="rgb(6.617737%, 26.927185%, 27.154541%)" stop-opacity="1"/>
<stop offset="0.429688" stop-color="rgb(6.529236%, 26.733398%, 26.959229%)" stop-opacity="1"/>
<stop offset="0.4375" stop-color="rgb(6.440735%, 26.539612%, 26.76239%)" stop-opacity="1"/>
<stop offset="0.445312" stop-color="rgb(6.350708%, 26.347351%, 26.567078%)" stop-opacity="1"/>
<stop offset="0.453125" stop-color="rgb(6.262207%, 26.153564%, 26.370239%)" stop-opacity="1"/>
<stop offset="0.460937" stop-color="rgb(6.173706%, 25.961304%, 26.174927%)" stop-opacity="1"/>
<stop offset="0.46875" stop-color="rgb(6.085205%, 25.767517%, 25.978088%)" stop-opacity="1"/>
<stop offset="0.476563" stop-color="rgb(5.995178%, 25.575256%, 25.78125%)" stop-opacity="1"/>
<stop offset="0.484375" stop-color="rgb(5.906677%, 25.38147%, 25.585938%)" stop-opacity="1"/>
<stop offset="0.492188" stop-color="rgb(5.818176%, 25.189209%, 25.389099%)" stop-opacity="1"/>
<stop offset="0.5" stop-color="rgb(5.729675%, 24.995422%, 25.193787%)" stop-opacity="1"/>
<stop offset="0.507813" stop-color="rgb(5.639648%, 24.803162%, 24.996948%)" stop-opacity="1"/>
<stop offset="0.515625" stop-color="rgb(5.551147%, 24.609375%, 24.801636%)" stop-opacity="1"/>
<stop offset="0.523438" stop-color="rgb(5.462646%, 24.417114%, 24.604797%)" stop-opacity="1"/>
<stop offset="0.53125" stop-color="rgb(5.374146%, 24.223328%, 24.409485%)" stop-opacity="1"/>
<stop offset="0.539062" stop-color="rgb(5.285645%, 24.031067%, 24.212646%)" stop-opacity="1"/>
<stop offset="0.546875" stop-color="rgb(5.195618%, 23.83728%, 24.017334%)" stop-opacity="1"/>
<stop offset="0.554688" stop-color="rgb(5.107117%, 23.64502%, 23.820496%)" stop-opacity="1"/>
<stop offset="0.5625" stop-color="rgb(5.018616%, 23.451233%, 23.625183%)" stop-opacity="1"/>
<stop offset="0.570312" stop-color="rgb(4.930115%, 23.258972%, 23.428345%)" stop-opacity="1"/>
<stop offset="0.578125" stop-color="rgb(4.840088%, 23.065186%, 23.233032%)" stop-opacity="1"/>
<stop offset="0.585938" stop-color="rgb(4.751587%, 22.872925%, 23.036194%)" stop-opacity="1"/>
<stop offset="0.59375" stop-color="rgb(4.663086%, 22.679138%, 22.840881%)" stop-opacity="1"/>
<stop offset="0.601562" stop-color="rgb(4.574585%, 22.486877%, 22.644043%)" stop-opacity="1"/>
<stop offset="0.609375" stop-color="rgb(4.484558%, 22.293091%, 22.44873%)" stop-opacity="1"/>
<stop offset="0.617187" stop-color="rgb(4.396057%, 22.10083%, 22.251892%)" stop-opacity="1"/>
<stop offset="0.625" stop-color="rgb(4.307556%, 21.907043%, 22.05658%)" stop-opacity="1"/>
<stop offset="0.632812" stop-color="rgb(4.219055%, 21.714783%, 21.859741%)" stop-opacity="1"/>
<stop offset="0.640625" stop-color="rgb(4.129028%, 21.520996%, 21.664429%)" stop-opacity="1"/>
<stop offset="0.648437" stop-color="rgb(4.040527%, 21.328735%, 21.46759%)" stop-opacity="1"/>
<stop offset="0.65625" stop-color="rgb(3.952026%, 21.134949%, 21.272278%)" stop-opacity="1"/>
<stop offset="0.664062" stop-color="rgb(3.863525%, 20.942688%, 21.075439%)" stop-opacity="1"/>
<stop offset="0.671875" stop-color="rgb(3.775024%, 20.748901%, 20.880127%)" stop-opacity="1"/>
<stop offset="0.679687" stop-color="rgb(3.684998%, 20.556641%, 20.683289%)" stop-opacity="1"/>
<stop offset="0.6875" stop-color="rgb(3.596497%, 20.362854%, 20.487976%)" stop-opacity="1"/>
<stop offset="0.695312" stop-color="rgb(3.507996%, 20.170593%, 20.291138%)" stop-opacity="1"/>
<stop offset="0.703125" stop-color="rgb(3.419495%, 19.976807%, 20.095825%)" stop-opacity="1"/>
<stop offset="0.710938" stop-color="rgb(3.329468%, 19.784546%, 19.898987%)" stop-opacity="1"/>
<stop offset="0.71875" stop-color="rgb(3.240967%, 19.590759%, 19.703674%)" stop-opacity="1"/>
<stop offset="0.726562" stop-color="rgb(3.152466%, 19.398499%, 19.506836%)" stop-opacity="1"/>
<stop offset="0.734375" stop-color="rgb(3.063965%, 19.204712%, 19.309998%)" stop-opacity="1"/>
<stop offset="0.742188" stop-color="rgb(2.973938%, 19.012451%, 19.114685%)" stop-opacity="1"/>
<stop offset="0.75" stop-color="rgb(2.885437%, 18.818665%, 18.917847%)" stop-opacity="1"/>
<stop offset="0.757812" stop-color="rgb(2.796936%, 18.626404%, 18.722534%)" stop-opacity="1"/>
<stop offset="0.765625" stop-color="rgb(2.708435%, 18.432617%, 18.525696%)" stop-opacity="1"/>
<stop offset="0.773437" stop-color="rgb(2.619934%, 18.240356%, 18.330383%)" stop-opacity="1"/>
<stop offset="0.78125" stop-color="rgb(2.529907%, 18.04657%, 18.133545%)" stop-opacity="1"/>
<stop offset="0.789062" stop-color="rgb(2.441406%, 17.854309%, 17.938232%)" stop-opacity="1"/>
<stop offset="0.796875" stop-color="rgb(2.352905%, 17.660522%, 17.741394%)" stop-opacity="1"/>
<stop offset="0.804687" stop-color="rgb(2.264404%, 17.468262%, 17.546082%)" stop-opacity="1"/>
<stop offset="0.8125" stop-color="rgb(2.174377%, 17.274475%, 17.349243%)" stop-opacity="1"/>
<stop offset="0.820313" stop-color="rgb(2.085876%, 17.082214%, 17.153931%)" stop-opacity="1"/>
<stop offset="0.828125" stop-color="rgb(1.997375%, 16.888428%, 16.957092%)" stop-opacity="1"/>
<stop offset="0.835938" stop-color="rgb(1.908875%, 16.696167%, 16.76178%)" stop-opacity="1"/>
<stop offset="0.84375" stop-color="rgb(1.818848%, 16.50238%, 16.564941%)" stop-opacity="1"/>
<stop offset="0.851562" stop-color="rgb(1.730347%, 16.31012%, 16.369629%)" stop-opacity="1"/>
<stop offset="0.859375" stop-color="rgb(1.641846%, 16.116333%, 16.172791%)" stop-opacity="1"/>
<stop offset="0.867188" stop-color="rgb(1.553345%, 15.924072%, 15.977478%)" stop-opacity="1"/>
<stop offset="0.875" stop-color="rgb(1.463318%, 15.730286%, 15.78064%)" stop-opacity="1"/>
<stop offset="0.882812" stop-color="rgb(1.374817%, 15.538025%, 15.585327%)" stop-opacity="1"/>
<stop offset="0.890625" stop-color="rgb(1.286316%, 15.344238%, 15.388489%)" stop-opacity="1"/>
<stop offset="0.898437" stop-color="rgb(1.197815%, 15.151978%, 15.193176%)" stop-opacity="1"/>
<stop offset="0.90625" stop-color="rgb(1.109314%, 14.958191%, 14.996338%)" stop-opacity="1"/>
<stop offset="0.914062" stop-color="rgb(1.019287%, 14.76593%, 14.801025%)" stop-opacity="1"/>
<stop offset="0.921875" stop-color="rgb(0.930786%, 14.572144%, 14.604187%)" stop-opacity="1"/>
<stop offset="0.929687" stop-color="rgb(0.842285%, 14.379883%, 14.408875%)" stop-opacity="1"/>
<stop offset="0.9375" stop-color="rgb(0.753784%, 14.186096%, 14.212036%)" stop-opacity="1"/>
<stop offset="0.945313" stop-color="rgb(0.663757%, 13.993835%, 14.016724%)" stop-opacity="1"/>
<stop offset="0.953125" stop-color="rgb(0.575256%, 13.800049%, 13.819885%)" stop-opacity="1"/>
<stop offset="0.960938" stop-color="rgb(0.486755%, 13.607788%, 13.624573%)" stop-opacity="1"/>
<stop offset="0.96875" stop-color="rgb(0.398254%, 13.414001%, 13.427734%)" stop-opacity="1"/>
<stop offset="0.976562" stop-color="rgb(0.308228%, 13.221741%, 13.232422%)" stop-opacity="1"/>
<stop offset="0.984375" stop-color="rgb(0.219727%, 13.027954%, 13.035583%)" stop-opacity="1"/>
<stop offset="1" stop-color="rgb(0.0869751%, 12.739563%, 12.742615%)" stop-opacity="1"/>
</linearGradient>
</defs>
<g clip-path="url(#clip-0)">
<g clip-path="url(#clip-1)">
<path fill-rule="nonzero" fill="url(#linear-pattern-0)" d="M 0 0 L 0 3187.71875 L 3304.390625 3187.71875 L 3304.390625 0 Z M 0 0 "/>
</g>
</g>
</svg>
